<svg width="160.000000" height="41.000000" viewBox="0 0 160 41" fill="none" xmlns="http://www.w3.org/2000/svg" xmlns:xlink="http://www.w3.org/1999/xlink">
	<desc>
			Created with Pixso.
	</desc>
	<defs/>
	<path d="M92.61 20.19L92.61 30.06L95.61 30.06L95.61 20.19L98.78 20.19L98.78 17.94L95.59 17.94L95.59 17C95.59 16.45 95.68 16.02 95.85 15.7C96.05 15.37 96.3 15.12 96.62 14.96C96.96 14.8 97.33 14.72 97.75 14.72C98.02 14.72 98.3 14.74 98.59 14.79C98.88 14.84 99.13 14.9 99.33 14.98L99.33 12.63C99.05 12.5 98.7 12.42 98.3 12.37C97.92 12.32 97.55 12.3 97.2 12.3C95.69 12.3 94.55 12.68 93.77 13.45C93 14.22 92.61 15.35 92.61 16.86L92.61 17.94L90.29 17.94L90.29 20.19L92.61 20.19ZM115.4 12.39L115.4 30.06L118.4 30.06L118.4 12.39L115.4 12.39ZM58.85 15.68L58.85 30.06L61.95 30.06L61.95 15.68L67.54 15.68L67.54 13.14L53.26 13.14L53.26 15.68L58.85 15.68ZM67.59 21.03L67.59 30.06L70.61 30.06L70.61 23.6C70.61 22.94 70.72 22.36 70.95 21.85C71.19 21.34 71.54 20.94 72 20.65C72.48 20.36 73.07 20.21 73.76 20.21Q74.24 20.21 74.55 20.26Q74.88 20.31 75.34 20.5L75.36 17.86C75.19 17.8 75.01 17.76 74.84 17.74C74.66 17.71 74.43 17.7 74.14 17.7C73.5 17.7 72.91 17.82 72.36 18.08C71.82 18.34 71.36 18.73 70.97 19.26C70.81 19.49 70.66 19.76 70.54 20.05L70.32 17.94L67.42 17.94Q67.52 18.68 67.54 19.47Q67.59 20.26 67.59 21.03ZM78.81 29.55C79.61 30.05 80.54 30.3 81.6 30.3Q82.66 30.3 83.56 29.92Q83.92 29.76 84.26 29.55C84.82 29.2 85.25 28.75 85.54 28.23L85.56 30.06L88.53 30.06L88.53 20.96C88.53 20.46 88.55 19.96 88.58 19.45C88.63 18.94 88.68 18.43 88.72 17.94L85.84 17.94L85.64 19.94Q85.53 19.73 85.4 19.53Q84.98 18.91 84.28 18.46C83.52 17.95 82.62 17.7 81.6 17.7C80.54 17.7 79.61 17.95 78.81 18.46Q78.59 18.6 78.39 18.76Q77.49 19.47 76.94 20.62C76.49 21.55 76.27 22.67 76.27 23.98Q76.27 25.95 76.94 27.37C77.39 28.31 78.01 29.04 78.81 29.55ZM102.41 29.55C103.21 30.05 104.14 30.3 105.2 30.3C106.19 30.3 107.08 30.05 107.86 29.55C108.42 29.2 108.85 28.75 109.14 28.23L109.16 30.06L112.13 30.06L112.13 20.96C112.13 20.46 112.15 19.96 112.18 19.45C112.23 18.94 112.28 18.43 112.33 17.94L109.45 17.94L109.24 19.94Q109.13 19.73 109 19.53Q108.59 18.91 107.89 18.46C107.12 17.95 106.22 17.7 105.2 17.7C104.14 17.7 103.21 17.95 102.41 18.46Q102.19 18.6 101.99 18.76Q101.09 19.47 100.54 20.62Q99.87 22.02 99.87 23.98Q99.87 25.95 100.54 27.37C100.99 28.31 101.61 29.04 102.41 29.55ZM124.23 35.07C125.14 35.31 126.15 35.43 127.27 35.43C129.26 35.43 130.76 34.93 131.79 33.92C132.83 32.93 133.35 31.48 133.35 29.58L133.35 20.96C133.35 20.46 133.36 19.96 133.39 19.45C133.43 18.94 133.47 18.43 133.54 17.94L130.63 17.94L130.43 19.93C130.14 19.32 129.69 18.82 129.07 18.44Q128.93 18.34 128.78 18.26Q127.75 17.7 126.41 17.7C125.32 17.7 124.37 17.94 123.55 18.44C122.75 18.92 122.13 19.62 121.68 20.53C121.23 21.42 121.01 22.49 121.01 23.72Q121.01 25.57 121.68 26.94C122.13 27.85 122.75 28.55 123.55 29.05C124.37 29.53 125.32 29.77 126.41 29.77Q127.62 29.77 128.59 29.29Q128.84 29.17 129.07 29.02C129.66 28.65 130.1 28.18 130.39 27.62L130.39 29.94Q130.39 31.32 129.71 32.12Q129.64 32.21 129.55 32.29C129.01 32.85 128.18 33.13 127.06 33.13C126.51 33.13 125.98 33.08 125.45 32.98C124.92 32.89 124.41 32.74 123.91 32.55C123.42 32.36 122.94 32.11 122.47 31.81L121.83 33.97C122.53 34.46 123.33 34.83 124.23 35.07ZM138.48 29.55C139.28 30.05 140.21 30.3 141.27 30.3Q142.33 30.3 143.23 29.92Q143.6 29.76 143.93 29.55C144.49 29.2 144.92 28.75 145.21 28.23L145.23 30.06L148.2 30.06L148.2 20.96Q148.2 20.21 148.25 19.45C148.3 18.94 148.35 18.43 148.4 17.94L145.52 17.94L145.31 19.94C145.02 19.34 144.57 18.85 143.96 18.46C143.19 17.95 142.29 17.7 141.27 17.7C140.21 17.7 139.28 17.95 138.48 18.46C137.68 18.96 137.06 19.68 136.61 20.62Q135.94 22.02 135.94 23.98Q135.94 25.95 136.61 27.37C137.06 28.31 137.68 29.04 138.48 29.55ZM151.45 21.03L151.45 30.06L154.47 30.06L154.47 23.6C154.47 22.94 154.58 22.36 154.81 21.85C155.05 21.34 155.4 20.94 155.86 20.65C156.34 20.36 156.93 20.21 157.62 20.21Q158.1 20.21 158.41 20.26Q158.74 20.31 159.2 20.5L159.22 17.86C159.05 17.8 158.87 17.76 158.7 17.74C158.52 17.71 158.29 17.7 158 17.7C157.36 17.7 156.77 17.82 156.22 18.08C155.68 18.34 155.22 18.73 154.83 19.26C154.67 19.49 154.52 19.76 154.4 20.05L154.18 17.94L151.28 17.94C151.34 18.43 151.38 18.94 151.4 19.47C151.43 20 151.45 20.52 151.45 21.03ZM84.72 27.01C84.14 27.66 83.38 27.99 82.44 27.99C81.48 27.99 80.71 27.66 80.13 27.01C79.57 26.34 79.29 25.33 79.29 23.98Q79.29 21.97 80.16 20.98Q80.49 20.6 80.91 20.37Q81.57 20 82.44 20Q83.31 20 83.97 20.37Q84.38 20.6 84.72 20.98C85.29 21.64 85.58 22.64 85.58 23.98C85.58 25.33 85.29 26.34 84.72 27.01ZM108.32 27.01C107.74 27.66 106.98 27.99 106.04 27.99C105.08 27.99 104.31 27.66 103.73 27.01C103.17 26.34 102.89 25.33 102.89 23.98C102.89 22.64 103.18 21.64 103.76 20.98C104.33 20.33 105.09 20 106.04 20C106.98 20 107.74 20.33 108.32 20.98C108.89 21.64 109.18 22.64 109.18 23.98C109.18 25.33 108.89 26.34 108.32 27.01ZM129.51 26.5C128.95 27.14 128.19 27.46 127.23 27.46C126.25 27.46 125.47 27.14 124.9 26.5C124.32 25.85 124.03 24.92 124.03 23.72C124.03 22.52 124.32 21.6 124.9 20.96C125.47 20.32 126.25 20 127.23 20C128.19 20 128.95 20.32 129.51 20.96C130.08 21.6 130.37 22.52 130.37 23.72C130.37 24.92 130.08 25.85 129.51 26.5ZM144.39 27.01C143.81 27.66 143.05 27.99 142.11 27.99C141.15 27.99 140.38 27.66 139.8 27.01C139.24 26.34 138.96 25.33 138.96 23.98C138.96 22.64 139.25 21.64 139.83 20.98C140.4 20.33 141.16 20 142.11 20C143.05 20 143.81 20.33 144.39 20.98C144.96 21.64 145.25 22.64 145.25 23.98C145.25 25.33 144.96 26.34 144.39 27.01Z" fill="#233348" fill-opacity="1.000000" fill-rule="evenodd"/>
	<circle cx="20.500000" cy="20.500000" r="20.500000" fill="#458FF6" fill-opacity="1.000000"/>
	<path d="M19.34 15.74L19.34 31.31L22.69 31.31L22.69 15.74L28.75 15.74L28.75 12.98L13.28 12.98L13.28 15.74L19.34 15.74Z" fill="#FFFFFF" fill-opacity="1.000000" fill-rule="evenodd"/>
</svg>
